<svg xmlns="http://www.w3.org/2000/svg" xmlns:xlink="http://www.w3.org/1999/xlink" xmlns:lucid="lucid" width="1442" height="562"><g transform="translate(-359 -199)" lucid:page-tab-id="0_0"><path d="M360 406a6 6 0 0 1 6-6h1108a6 6 0 0 1 6 6v348a6 6 0 0 1-6 6H366a6 6 0 0 1-6-6z" stroke="#000" stroke-width="2" fill="#019281" fill-opacity=".4"/><path d="M360 206a6 6 0 0 1 6-6h1108a6 6 0 0 1 6 6v188a6 6 0 0 1-6 6H366a6 6 0 0 1-6-6z" stroke="#000" stroke-width="2" fill="#cfe4ff" fill-opacity=".64"/><path d="M540 246a6 6 0 0 1 6-6h188a6 6 0 0 1 6 6v108a6 6 0 0 1-6 6H546a6 6 0 0 1-6-6z" stroke="#000" stroke-width="2" fill="#fff"/><use xlink:href="#a" transform="matrix(1,0,0,1,552,252) translate(11.893229166666671 24.52777777777778)"/><use xlink:href="#b" transform="matrix(1,0,0,1,552,252) translate(27.38259548611112 56.79340277777778)"/><use xlink:href="#c" transform="matrix(1,0,0,1,552,252) translate(122.53233506944443 56.79340277777778)"/><use xlink:href="#d" transform="matrix(1,0,0,1,552,252) translate(59.66883680555556 89.05902777777777)"/><path d="M741.5 300h61.12" stroke="#3a414a" fill="none"/><path d="M741.5 300.48h-.5v-.96h.5z" stroke="#3a414a" stroke-width=".05" fill="#3a414a"/><path d="M817.38 300l-14.26 4.63v-9.26z" stroke="#3a414a" fill="#3a414a"/><path d="M820 246a6 6 0 0 1 6-6h188a6 6 0 0 1 6 6v108a6 6 0 0 1-6 6H826a6 6 0 0 1-6-6z" stroke="#000" stroke-width="2" fill="#fff"/><use xlink:href="#e" transform="matrix(1,0,0,1,832,252) translate(6.4027777777777715 24.52777777777778)"/><use xlink:href="#b" transform="matrix(1,0,0,1,832,252) translate(27.38259548611112 56.79340277777778)"/><use xlink:href="#c" transform="matrix(1,0,0,1,832,252) translate(122.53233506944443 56.79340277777778)"/><use xlink:href="#d" transform="matrix(1,0,0,1,832,252) translate(59.66883680555556 89.05902777777777)"/><path d="M1021.5 300h61.12" stroke="#3a414a" fill="none"/><path d="M1021.5 300.48h-.5v-.96h.5z" stroke="#3a414a" stroke-width=".05" fill="#3a414a"/><path d="M1097.38 300l-14.26 4.63v-9.26z" stroke="#3a414a" fill="#3a414a"/><path d="M1100 246a6 6 0 0 1 6-6h188a6 6 0 0 1 6 6v108a6 6 0 0 1-6 6h-188a6 6 0 0 1-6-6z" stroke="#000" stroke-width="2" fill="#fff"/><use xlink:href="#f" transform="matrix(1,0,0,1,1112,252) translate(16.450520833333343 29.22222222222222)"/><use xlink:href="#g" transform="matrix(1,0,0,1,1112,252) translate(88.2560763888889 29.22222222222222)"/><use xlink:href="#h" transform="matrix(1,0,0,1,1112,252) translate(24.13715277777777 55.03472222222222)"/><use xlink:href="#i" transform="matrix(1,0,0,1,1112,252) translate(127.5138888888889 55.03472222222222)"/><use xlink:href="#j" transform="matrix(1,0,0,1,1112,252) translate(6.810763888888886 80.84722222222223)"/><use xlink:href="#k" transform="matrix(1,0,0,1,1112,252) translate(82.93055555555556 80.84722222222223)"/><path d="M1301.5 300h32.5a6 6 0 0 1 6 6v115.83" stroke="#3a414a" fill="none"/><path d="M1301.5 300.48h-.5v-.96h.5z" stroke="#3a414a" stroke-width=".05" fill="#3a414a"/><path d="M1340 436.6l-4.63-14.27h9.27z" stroke="#3a414a" fill="#3a414a"/><path d="M1240 445.2a6 6 0 0 1 6-6h188a6 6 0 0 1 6 6v108a6 6 0 0 1-6 6h-188a6 6 0 0 1-6-6z" stroke="#000" stroke-width="2" fill="#fff"/><use xlink:href="#l" transform="matrix(1,0,0,1,1251.9999999999995,451.21180555555554) translate(9.571180555555557 24.52777777777778)"/><use xlink:href="#m" transform="matrix(1,0,0,1,1251.9999999999995,451.21180555555554) translate(52.22526041666667 24.52777777777778)"/><use xlink:href="#n" transform="matrix(1,0,0,1,1251.9999999999995,451.21180555555554) translate(117.26432291666667 24.52777777777778)"/><use xlink:href="#o" transform="matrix(1,0,0,1,1251.9999999999995,451.21180555555554) translate(135.99262152777777 24.52777777777778)"/><use xlink:href="#p" transform="matrix(1,0,0,1,1251.9999999999995,451.21180555555554) translate(43.44162326388889 56.79340277777778)"/><use xlink:href="#q" transform="matrix(1,0,0,1,1251.9999999999995,451.21180555555554) translate(34.088324652777786 89.05902777777777)"/><path d="M680 445.2a6 6 0 0 1 6-6h188a6 6 0 0 1 6 6v108a6 6 0 0 1-6 6H686a6 6 0 0 1-6-6z" stroke="#000" stroke-width="2" fill="#fff"/><use xlink:href="#r" transform="matrix(1,0,0,1,692.0000000000007,451.21180555555554) translate(49.4111328125 40.1650390625)"/><use xlink:href="#s" transform="matrix(1,0,0,1,692.0000000000007,451.21180555555554) translate(-4.0849609375 69.2041015625)"/><path d="M1055.32 422.96a7.5 7.5 0 0 1 9.37 0l90.62 72.5a4.8 4.8 0 0 1 0 7.5l-90.63 72.5a7.5 7.5 0 0 1-9.38 0l-90.63-72.5a4.8 4.8 0 0 1-.02-7.5z" stroke="#000" stroke-width="2" fill="#fff"/><use xlink:href="#t" transform="matrix(1,0,0,1,965.0000000000014,424.2118055555556) translate(43.47722222222222 57.25694444444444)"/><use xlink:href="#u" transform="matrix(1,0,0,1,965.0000000000014,424.2118055555556) translate(84.30296006944444 57.25694444444444)"/><use xlink:href="#v" transform="matrix(1,0,0,1,965.0000000000014,424.2118055555556) translate(36.70584635416666 79.84288194444444)"/><use xlink:href="#w" transform="matrix(1,0,0,1,965.0000000000014,424.2118055555556) translate(89.57802517361111 79.84288194444444)"/><use xlink:href="#x" transform="matrix(1,0,0,1,965.0000000000014,424.2118055555556) translate(126.9554123263889 79.84288194444444)"/><use xlink:href="#y" transform="matrix(1,0,0,1,965.0000000000014,424.2118055555556) translate(49.48525173611112 102.42881944444444)"/><path d="M400 609.15a6 6 0 0 1 6-6h188a6 6 0 0 1 6 6V714a6 6 0 0 1-6 6H406a6 6 0 0 1-6-6z" stroke="#000" stroke-width="2" fill="#fff"/><use xlink:href="#z" transform="matrix(1,0,0,1,412,615.1527777777779) translate(9.71875 17.22222222222222)"/><use xlink:href="#A" transform="matrix(1,0,0,1,412,615.1527777777779) translate(82.22743055555556 17.22222222222222)"/><use xlink:href="#B" transform="matrix(1,0,0,1,412,615.1527777777779) translate(101.89756944444444 17.22222222222222)"/><use xlink:href="#C" transform="matrix(1,0,0,1,412,615.1527777777779) translate(75.22222222222223 43.034722222222214)"/><use xlink:href="#D" transform="matrix(1,0,0,1,412,615.1527777777779) translate(0.8602430555555429 68.84722222222221)"/><use xlink:href="#E" transform="matrix(1,0,0,1,412,615.1527777777779) translate(154.27170138888889 68.84722222222221)"/><use xlink:href="#F" transform="matrix(1,0,0,1,412,615.1527777777779) translate(18.655381944444457 92.23784722222221)"/><path d="M913.2 499.7H897.4v-.96h15.83zm48.18 0h-31.7v-.96h31.7z" stroke="#3a414a" stroke-width=".05" fill="#3a414a"/><path d="M961.88 499.2l.04.5h-.55v-.96h.55z" fill="#3a414a"/><path stroke="#3a414a" stroke-width=".05" fill="#3a414a"/><path d="M896.88 503.85l-14.26-4.64 14.26-4.62z" fill="#3a414a"/><path d="M897.36 504.5l-16.28-5.3 16.28-5.28zm-13.2-5.3l12.25 4v-7.97z" stroke="#3a414a" stroke-width=".05" fill="#3a414a"/><g><use xlink:href="#G" transform="matrix(1,0,0,1,913.2106886389519,488.45659722222223) translate(0 17.22222222222222)"/></g><path d="M1238.5 499.2h-64" stroke="#3a414a" fill="none"/><path d="M1239 499.7h-.5v-.96h.5z" stroke="#3a414a" stroke-width=".05" fill="#3a414a"/><path d="M1159.74 499.2l14.26-4.62v9.27z" stroke="#3a414a" fill="#3a414a"/><path d="M678.5 499.2h-61.12" stroke="#3a414a" fill="none"/><path d="M679 499.7h-.5v-.96h.5z" stroke="#3a414a" stroke-width=".05" fill="#3a414a"/><path d="M602.62 499.2l14.26-4.62v9.27z" stroke="#3a414a" fill="#3a414a"/><path d="M1054.02 390.18l1 .08.98.24.94.4.87.52.78.66.66.77.53.87.4.94.23.98.07 1v23.17h-.94V396.7l-.07-.9-.2-.83-.34-.8-.45-.74-.56-.65-.65-.56-.74-.46-.8-.34-.84-.2-.88-.07H862.23v-.95zm-413.48-4.66l.2.84.34.8.45.74.56.66.65.57.74.45.8.33.84.2.88.08h191.75v.95h-191.8l-.98-.08-1-.23-.94-.4-.87-.52-.78-.66-.66-.78-.53-.86-.4-.94-.23-1-.08-.98v-7.3h.96v7.26z" stroke="#3a414a" stroke-width=".05" fill="#3a414a"/><path d="M1060.47 420.35l-.47-.04-.47.05v-.55h.94z" fill="#3a414a"/><path stroke="#3a414a" stroke-width=".05" fill="#3a414a"/><path d="M644.63 376.88h-9.26l4.63-14.26z" fill="#3a414a"/><path d="M645.3 377.36h-10.6l5.3-16.28zm-9.28-.95h7.96L640 364.16z" stroke="#3a414a" stroke-width=".05" fill="#3a414a"/><g><use xlink:href="#H" transform="matrix(1,0,0,1,837.7734375000007,379.90188331336) translate(0 17.22222222222222)"/></g><path d="M400 445.2a6 6 0 0 1 6-6h188a6 6 0 0 1 6 6v108a6 6 0 0 1-6 6H406a6 6 0 0 1-6-6z" stroke="#000" stroke-width="2" fill="#fff"/><g><use xlink:href="#I" transform="matrix(1,0,0,1,412,451.21180555555554) translate(45.584635416666664 24.52777777777778)"/><use xlink:href="#J" transform="matrix(1,0,0,1,412,451.21180555555554) translate(11.475477430555557 56.79340277777778)"/><use xlink:href="#K" transform="matrix(1,0,0,1,412,451.21180555555554) translate(132.580078125 56.79340277777778)"/><use xlink:href="#L" transform="matrix(1,0,0,1,412,451.21180555555554) translate(36.73589409722223 89.05902777777777)"/></g><path d="M500 560.7v25.07" stroke="#3a414a" fill="none"/><path d="M500.48 560.73h-.96v-.52h.96z" stroke="#3a414a" stroke-width=".05" fill="#3a414a"/><path d="M500 600.53l-4.63-14.26h9.26z" stroke="#3a414a" fill="#3a414a"/><path d="M1520 571.2a12 12 0 0 1 12-12h256a12 12 0 0 1 12 12v176a12 12 0 0 1-12 12h-256a12 12 0 0 1-12-12z" stroke="#dfe3e8" stroke-width="2" fill="#fff"/><path d="M1559.03 642.3v-.15a14.63 14.63 0 0 1 14.63-14.64 14.63 14.63 0 0 1 14.64 14.65 14.63 14.63 0 0 1-14.64 14.63 14.63 14.63 0 0 1-14.63-14.63V642" stroke="#000" stroke-opacity=".25" fill="#cfe4ff" fill-opacity=".64"/><path d="M1559.03 681.32v-.15a14.63 14.63 0 0 1 14.63-14.63 14.63 14.63 0 0 1 14.64 14.63 14.63 14.63 0 0 1-14.64 14.64 14.63 14.63 0 0 1-14.63-14.63v-.14" stroke="#000" stroke-opacity=".25" fill="#019281" fill-opacity=".4"/><g><use xlink:href="#M" transform="matrix(1,0,0,1,1559.0278297201307,588.4826778456535) translate(0 21.5478515625)"/></g><g><use xlink:href="#N" transform="matrix(1,0,0,1,1602.9341381552777,627.5105075657841) translate(0 13.5625)"/><use xlink:href="#O" transform="matrix(1,0,0,1,1602.9341381552777,627.5105075657841) translate(38.8349609375 13.5625)"/><use xlink:href="#P" transform="matrix(1,0,0,1,1602.9341381552777,627.5105075657841) translate(0 32.195898437500006)"/></g><g><use xlink:href="#N" transform="matrix(1,0,0,1,1602.9341381552777,666.5383372859148) translate(0 19.959374999999998)"/><use xlink:href="#Q" transform="matrix(1,0,0,1,1602.9341381552777,666.5383372859148) translate(38.8349609375 19.959374999999998)"/><use xlink:href="#R" transform="matrix(1,0,0,1,1602.9341381552777,666.5383372859148) translate(67.78515625 19.959374999999998)"/><use xlink:href="#S" transform="matrix(1,0,0,1,1602.9341381552777,666.5383372859148) translate(87.2744140625 19.959374999999998)"/><use xlink:href="#T" transform="matrix(1,0,0,1,1602.9341381552777,666.5383372859148) translate(0 38.5927734375)"/><use xlink:href="#U" transform="matrix(1,0,0,1,1602.9341381552777,666.5383372859148) translate(81.8740234375 38.5927734375)"/><use xlink:href="#V" transform="matrix(1,0,0,1,1602.9341381552777,666.5383372859148) translate(126.669921875 38.5927734375)"/><use xlink:href="#W" transform="matrix(1,0,0,1,1602.9341381552777,666.5383372859148) translate(0 57.226171875000006)"/></g><defs><path d="M52 0l541-1490h220L1361 0h-200l-149-416H398L254 0H52zm404-582h497c-103-290-145-390-251-756-108 377-145 460-246 756" id="X"/><path d="M611 442c-248 0-391-105-460-228l146-94c47 65 117 165 314 165 178 0 307-82 307-266v-224h-17C863-141 792-18 576-18c-268 0-472-195-472-546 0-346 197-568 476-568 216 0 288 133 326 193h17v-179h175V29c0 289-215 413-487 413zm-5-620c203 0 314-146 314-390 0-237-108-403-314-403-213 0-319 180-319 403 0 230 109 390 319 390" id="Y"/><path d="M158 0v-1118h174v172h12c41-113 157-188 290-188 26 0 70 2 91 3v181c-11-2-60-10-108-10-161 0-279 109-279 260V0H158" id="Z"/><path d="M628 24c-324 0-524-230-524-574 0-343 198-582 503-582 237 0 487 146 487 559v75H286c9 234 145 362 343 362 132 0 231-58 273-172l174 48C1024-91 857 24 628 24zM287-650h624c-17-190-120-322-304-322-192 0-309 151-320 322" id="aa"/><path d="M471 26C259 26 90-98 90-318c0-256 228-303 435-329 202-27 287-16 287-108 0-139-79-219-234-219-161 0-248 86-283 164l-173-57c86-203 278-265 451-265 150 0 419 46 419 395V0H815v-152h-12C765-73 660 26 471 26zm31-159c199 0 310-134 310-271v-155c-30 35-226 55-295 64-131 17-246 59-246 186 0 116 97 176 231 176" id="ab"/><path d="M692-1560L212 224H46l480-1784h166" id="ac"/><path d="M180 0v-1490h908v168H370v486h669v168H370v500h727V0H180" id="ad"/><path d="M577 24c-279 0-473-224-473-580 0-354 195-576 474-576 218 0 287 134 324 193h14v-551h180V0H922v-173h-20C865-111 790 24 577 24zm27-161c203 0 314-172 314-421 0-247-108-413-314-413-212 0-317 181-317 413 0 235 108 421 317 421" id="ae"/><path d="M158 0v-1118h180V0H158zm91-1301c-68 0-125-53-125-119s57-119 125-119c69 0 126 53 126 119s-57 119-126 119" id="af"/><path d="M598-1118v154H368v674c0 100 37 144 132 144 23 0 62-6 92-12L629-6c-37 13-88 20-134 20-193 0-307-107-307-290v-688H20v-154h168v-266h180v266h230" id="ag"/><g id="a"><use transform="matrix(0.010850694444444444,0,0,0.010850694444444444,0,0)" xlink:href="#X"/><use transform="matrix(0.010850694444444444,0,0,0.010850694444444444,15.33203125,0)" xlink:href="#Y"/><use transform="matrix(0.010850694444444444,0,0,0.010850694444444444,28.96050347222222,0)" xlink:href="#Z"/><use transform="matrix(0.010850694444444444,0,0,0.010850694444444444,36.95746527777778,0)" xlink:href="#aa"/><use transform="matrix(0.010850694444444444,0,0,0.010850694444444444,49.91319444444444,0)" xlink:href="#Y"/><use transform="matrix(0.010850694444444444,0,0,0.010850694444444444,63.541666666666664,0)" xlink:href="#ab"/><use transform="matrix(0.010850694444444444,0,0,0.010850694444444444,76.01996527777777,0)" xlink:href="#Z"/><use transform="matrix(0.010850694444444444,0,0,0.010850694444444444,83.63715277777777,0)" xlink:href="#ac"/><use transform="matrix(0.010850694444444444,0,0,0.010850694444444444,91.64496527777777,0)" xlink:href="#ad"/><use transform="matrix(0.010850694444444444,0,0,0.010850694444444444,105.00217013888889,0)" xlink:href="#ae"/><use transform="matrix(0.010850694444444444,0,0,0.010850694444444444,118.60894097222221,0)" xlink:href="#af"/><use transform="matrix(0.010850694444444444,0,0,0.010850694444444444,123.99088541666666,0)" xlink:href="#ag"/><use transform="matrix(0.010850694444444444,0,0,0.010850694444444444,131.36935763888889,0)" xlink:href="#ab"/><use transform="matrix(0.010850694444444444,0,0,0.010850694444444444,143.84765625,0)" xlink:href="#Z"/></g><path d="M613 24c-304 0-509-231-509-576 0-350 205-580 509-580 216 0 392 114 453 309l-173 49c-33-115-133-197-280-197-223 0-326 196-326 419 0 220 103 415 326 415 150 0 252-85 285-206l172 49C1010-95 832 24 613 24" id="ah"/><path d="M158 0v-1118h175l1 205c55-151 181-225 313-225 147 0 245 90 285 228 53-141 190-228 352-228 194 0 352 125 352 384V0h-181v-749c0-161-105-225-225-225-151 0-243 103-243 244V0H807v-767c0-124-93-207-219-207-131 0-250 92-250 270V0H158" id="ai"/><path d="M677 24c-213 0-288-135-325-197h-20V0H158v-1490h180v551h14c37-59 106-193 324-193 279 0 474 222 474 576 0 356-194 580-473 580zm-27-161c209 0 317-186 317-421 0-232-105-413-317-413-206 0-314 166-314 413 0 249 111 421 314 421" id="aj"/><path d="M613 24c-304 0-509-231-509-576 0-350 205-580 509-580 305 0 511 230 511 580 0 345-206 576-511 576zm0-161c226 0 329-195 329-415 0-222-103-419-329-419-223 0-326 196-326 419 0 220 103 415 326 415" id="ak"/><path d="M538 24C308 24 148-78 108-271l171-41c32 123 123 178 257 178 156 0 256-77 256-169 0-77-54-128-164-154l-186-44c-203-48-300-148-300-305 0-192 176-326 414-326 230 0 351 112 402 269l-163 42c-31-80-94-158-238-158-133 0-233 69-233 162 0 83 57 129 188 160l169 40c203 48 298 149 298 302 0 196-179 339-441 339" id="al"/><g id="b"><use transform="matrix(0.010850694444444444,0,0,0.010850694444444444,0,0)" xlink:href="#ah"/><use transform="matrix(0.010850694444444444,0,0,0.010850694444444444,12.91232638888889,0)" xlink:href="#ab"/><use transform="matrix(0.010850694444444444,0,0,0.010850694444444444,25.390625,0)" xlink:href="#ai"/><use transform="matrix(0.010850694444444444,0,0,0.010850694444444444,44.85677083333333,0)" xlink:href="#aj"/><use transform="matrix(0.010850694444444444,0,0,0.010850694444444444,58.46354166666666,0)" xlink:href="#af"/><use transform="matrix(0.010850694444444444,0,0,0.010850694444444444,63.8454861111111,0)" xlink:href="#ak"/><use transform="matrix(0.010850694444444444,0,0,0.010850694444444444,77.17013888888887,0)" xlink:href="#al"/></g><path d="M338-670V0H158v-1118h173l1 207c72-158 192-221 342-221 226 0 378 139 378 422V0H872v-695c0-172-96-275-252-275-161 0-282 109-282 300" id="am"/><g id="c"><use transform="matrix(0.010850694444444444,0,0,0.010850694444444444,0,0)" xlink:href="#aa"/><use transform="matrix(0.010850694444444444,0,0,0.010850694444444444,12.955729166666666,0)" xlink:href="#am"/></g><path d="M180 0v-1490h190v1322h690V0H180" id="an"/><path d="M338-1490V0H158v-1490h180" id="ao"/><g id="d"><use transform="matrix(0.010850694444444444,0,0,0.010850694444444444,0,0)" xlink:href="#an"/><use transform="matrix(0.010850694444444444,0,0,0.010850694444444444,12.565104166666666,0)" xlink:href="#ak"/><use transform="matrix(0.010850694444444444,0,0,0.010850694444444444,25.889756944444443,0)" xlink:href="#ah"/><use transform="matrix(0.010850694444444444,0,0,0.010850694444444444,38.80208333333333,0)" xlink:href="#ab"/><use transform="matrix(0.010850694444444444,0,0,0.010850694444444444,51.28038194444444,0)" xlink:href="#ao"/></g><path d="M180 0v-1490h510c348 0 508 209 508 474 0 266-160 477-507 477H370V0H180zm190-706h312c236 0 327-133 327-310 0-176-91-307-329-307H370v617" id="ap"/><path d="M157-1118h181V80c1 225-123 350-364 338V252c126 9 184-48 183-172v-1198zm91-183c-68 0-125-53-125-119s57-119 125-119c69 0 126 53 126 119s-57 119-126 119" id="aq"/><path d="M537 14c-226 0-379-139-379-422v-710h180v695c0 172 97 275 253 275 160 0 281-109 281-300v-670h181V0H879v-209C806-46 684 14 537 14" id="ar"/><g id="e"><use transform="matrix(0.010850694444444444,0,0,0.010850694444444444,0,0)" xlink:href="#ap"/><use transform="matrix(0.010850694444444444,0,0,0.010850694444444444,14.192708333333332,0)" xlink:href="#Z"/><use transform="matrix(0.010850694444444444,0,0,0.010850694444444444,22.189670138888886,0)" xlink:href="#ak"/><use transform="matrix(0.010850694444444444,0,0,0.010850694444444444,35.514322916666664,0)" xlink:href="#aj"/><use transform="matrix(0.010850694444444444,0,0,0.010850694444444444,49.338107638888886,0)" xlink:href="#ab"/><use transform="matrix(0.010850694444444444,0,0,0.010850694444444444,61.81640625,0)" xlink:href="#Z"/><use transform="matrix(0.010850694444444444,0,0,0.010850694444444444,69.43359375,0)" xlink:href="#ac"/><use transform="matrix(0.010850694444444444,0,0,0.010850694444444444,77.44140625,0)" xlink:href="#ad"/><use transform="matrix(0.010850694444444444,0,0,0.010850694444444444,90.79861111111111,0)" xlink:href="#aq"/><use transform="matrix(0.010850694444444444,0,0,0.010850694444444444,96.18055555555556,0)" xlink:href="#aa"/><use transform="matrix(0.010850694444444444,0,0,0.010850694444444444,109.13628472222224,0)" xlink:href="#ah"/><use transform="matrix(0.010850694444444444,0,0,0.010850694444444444,121.83159722222224,0)" xlink:href="#ar"/><use transform="matrix(0.010850694444444444,0,0,0.010850694444444444,134.97178819444446,0)" xlink:href="#ag"/><use transform="matrix(0.010850694444444444,0,0,0.010850694444444444,142.35026041666669,0)" xlink:href="#ab"/><use transform="matrix(0.010850694444444444,0,0,0.010850694444444444,154.8285590277778,0)" xlink:href="#Z"/></g><path d="M180 0v-1490h510c348 0 508 194 508 460 0 198-88 351-276 417L1256 0h-220L726-579c-117 2-238 0-356 1V0H180zm190-747h312c235 0 327-108 327-283 0-177-92-293-329-293H370v576" id="as"/><path d="M126 0v-134l627-806v-11H146v-167h839v143L376-178v11h629V0H126" id="at"/><g id="f"><use transform="matrix(0.008680555555555556,0,0,0.008680555555555556,0,0)" xlink:href="#as"/><use transform="matrix(0.008680555555555556,0,0,0.008680555555555556,11.180555555555559,0)" xlink:href="#aa"/><use transform="matrix(0.008680555555555556,0,0,0.008680555555555556,21.71875,0)" xlink:href="#ab"/><use transform="matrix(0.008680555555555556,0,0,0.008680555555555556,31.70138888888889,0)" xlink:href="#ao"/><use transform="matrix(0.008680555555555556,0,0,0.008680555555555556,36.00694444444444,0)" xlink:href="#af"/><use transform="matrix(0.008680555555555556,0,0,0.008680555555555556,40.3125,0)" xlink:href="#at"/><use transform="matrix(0.008680555555555556,0,0,0.008680555555555556,50.130208333333336,0)" xlink:href="#ab"/><use transform="matrix(0.008680555555555556,0,0,0.008680555555555556,60.11284722222222,0)" xlink:href="#Z"/></g><g id="g"><use transform="matrix(0.008680555555555556,0,0,0.008680555555555556,0,0)" xlink:href="#ah"/><use transform="matrix(0.008680555555555556,0,0,0.008680555555555556,10.15625,0)" xlink:href="#ak"/><use transform="matrix(0.008680555555555556,0,0,0.008680555555555556,20.81597222222222,0)" xlink:href="#ai"/><use transform="matrix(0.008680555555555556,0,0,0.008680555555555556,36.388888888888886,0)" xlink:href="#ai"/><use transform="matrix(0.008680555555555556,0,0,0.008680555555555556,51.96180555555556,0)" xlink:href="#af"/><use transform="matrix(0.008680555555555556,0,0,0.008680555555555556,56.267361111111114,0)" xlink:href="#ag"/><use transform="matrix(0.008680555555555556,0,0,0.008680555555555556,61.90972222222222,0)" xlink:href="#al"/></g><g id="h"><use transform="matrix(0.008680555555555556,0,0,0.008680555555555556,0,0)" xlink:href="#aa"/><use transform="matrix(0.008680555555555556,0,0,0.008680555555555556,10.364583333333334,0)" xlink:href="#am"/><use transform="matrix(0.008680555555555556,0,0,0.008680555555555556,20.868055555555557,0)" xlink:href="#ar"/><use transform="matrix(0.008680555555555556,0,0,0.008680555555555556,31.380208333333336,0)" xlink:href="#am"/><use transform="matrix(0.008680555555555556,0,0,0.008680555555555556,41.88368055555556,0)" xlink:href="#ah"/><use transform="matrix(0.008680555555555556,0,0,0.008680555555555556,52.03993055555556,0)" xlink:href="#af"/><use transform="matrix(0.008680555555555556,0,0,0.008680555555555556,56.345486111111114,0)" xlink:href="#ab"/><use transform="matrix(0.008680555555555556,0,0,0.008680555555555556,66.328125,0)" xlink:href="#am"/><use transform="matrix(0.008680555555555556,0,0,0.008680555555555556,76.83159722222223,0)" xlink:href="#ae"/><use transform="matrix(0.008680555555555556,0,0,0.008680555555555556,87.71701388888889,0)" xlink:href="#ak"/></g><g id="i"><use transform="matrix(0.008680555555555556,0,0,0.008680555555555556,0,0)" xlink:href="#ao"/><use transform="matrix(0.008680555555555556,0,0,0.008680555555555556,4.305555555555555,0)" xlink:href="#ak"/><use transform="matrix(0.008680555555555556,0,0,0.008680555555555556,14.965277777777779,0)" xlink:href="#al"/></g><g id="j"><use transform="matrix(0.008680555555555556,0,0,0.008680555555555556,0,0)" xlink:href="#ah"/><use transform="matrix(0.008680555555555556,0,0,0.008680555555555556,10.32986111111111,0)" xlink:href="#ab"/><use transform="matrix(0.008680555555555556,0,0,0.008680555555555556,20.3125,0)" xlink:href="#ai"/><use transform="matrix(0.008680555555555556,0,0,0.008680555555555556,35.88541666666667,0)" xlink:href="#aj"/><use transform="matrix(0.008680555555555556,0,0,0.008680555555555556,46.77083333333334,0)" xlink:href="#af"/><use transform="matrix(0.008680555555555556,0,0,0.008680555555555556,51.0763888888889,0)" xlink:href="#ak"/><use transform="matrix(0.008680555555555556,0,0,0.008680555555555556,61.73611111111112,0)" xlink:href="#al"/></g><g id="k"><use transform="matrix(0.008680555555555556,0,0,0.008680555555555556,0,0)" xlink:href="#Z"/><use transform="matrix(0.008680555555555556,0,0,0.008680555555555556,6.397569444444445,0)" xlink:href="#aa"/><use transform="matrix(0.008680555555555556,0,0,0.008680555555555556,16.93576388888889,0)" xlink:href="#ab"/><use transform="matrix(0.008680555555555556,0,0,0.008680555555555556,26.91840277777778,0)" xlink:href="#ao"/><use transform="matrix(0.008680555555555556,0,0,0.008680555555555556,31.223958333333336,0)" xlink:href="#af"/><use transform="matrix(0.008680555555555556,0,0,0.008680555555555556,35.52951388888889,0)" xlink:href="#at"/><use transform="matrix(0.008680555555555556,0,0,0.008680555555555556,45.347222222222236,0)" xlink:href="#ab"/><use transform="matrix(0.008680555555555556,0,0,0.008680555555555556,55.329861111111114,0)" xlink:href="#ae"/><use transform="matrix(0.008680555555555556,0,0,0.008680555555555556,66.21527777777779,0)" xlink:href="#ak"/><use transform="matrix(0.008680555555555556,0,0,0.008680555555555556,76.87500000000001,0)" xlink:href="#al"/></g><path d="M343-1264l-193-294h201l140 294H343" id="au"/><path d="M789 20c-398 0-667-293-667-764 0-473 273-766 655-766 315 0 558 198 612 487h-196c-61-191-204-311-415-311-262 0-471 207-471 590 0 380 208 588 482 588 249 0 420-165 425-427H828v-166h572v163c0 370-256 606-611 606" id="av"/><g id="l"><use transform="matrix(0.010850694444444444,0,0,0.010850694444444444,0,0)" xlink:href="#au"/><use transform="matrix(0.010850694444444444,0,0,0.010850694444444444,7.172309027777778,0)" xlink:href="#av"/><use transform="matrix(0.010850694444444444,0,0,0.010850694444444444,23.75217013888889,0)" xlink:href="#af"/><use transform="matrix(0.010850694444444444,0,0,0.010850694444444444,29.134114583333336,0)" xlink:href="#ag"/></g><path d="M158 418v-1536h174v179h20c37-59 106-193 324-193 279 0 474 222 474 576 0 356-194 580-473 580-213 0-288-135-325-197h-14v591H158zm492-555c209 0 317-186 317-421 0-232-105-413-317-413-206 0-314 166-314 413 0 249 111 421 314 421" id="aw"/><path d="M338-670V0H158v-1490h180v566c73-149 190-208 336-208 226 0 379 139 379 422V0H872v-695c0-172-96-275-252-275-161 0-282 109-282 300" id="ax"/><g id="m"><use transform="matrix(0.010850694444444444,0,0,0.010850694444444444,0,0)" xlink:href="#aw"/><use transform="matrix(0.010850694444444444,0,0,0.010850694444444444,13.606770833333332,0)" xlink:href="#ar"/><use transform="matrix(0.010850694444444444,0,0,0.010850694444444444,26.746961805555554,0)" xlink:href="#al"/><use transform="matrix(0.010850694444444444,0,0,0.010850694444444444,38.4765625,0)" xlink:href="#ax"/><use transform="matrix(0.010850694444444444,0,0,0.010850694444444444,51.61675347222222,0)" xlink:href="#au"/></g><use transform="matrix(0.010850694444444444,0,0,0.010850694444444444,0,0)" xlink:href="#ab" id="n"/><g id="o"><use transform="matrix(0.010850694444444444,0,0,0.010850694444444444,0,0)" xlink:href="#ao"/><use transform="matrix(0.010850694444444444,0,0,0.010850694444444444,5.381944444444445,0)" xlink:href="#ak"/><use transform="matrix(0.010850694444444444,0,0,0.010850694444444444,18.70659722222222,0)" xlink:href="#al"/></g><g id="p"><use transform="matrix(0.010850694444444444,0,0,0.010850694444444444,0,0)" xlink:href="#ah"/><use transform="matrix(0.010850694444444444,0,0,0.010850694444444444,12.6953125,0)" xlink:href="#ak"/><use transform="matrix(0.010850694444444444,0,0,0.010850694444444444,26.01996527777778,0)" xlink:href="#ai"/><use transform="matrix(0.010850694444444444,0,0,0.010850694444444444,45.48611111111111,0)" xlink:href="#ai"/><use transform="matrix(0.010850694444444444,0,0,0.010850694444444444,64.95225694444444,0)" xlink:href="#af"/><use transform="matrix(0.010850694444444444,0,0,0.010850694444444444,70.33420138888889,0)" xlink:href="#ag"/><use transform="matrix(0.010850694444444444,0,0,0.010850694444444444,77.38715277777777,0)" xlink:href="#al"/></g><g id="q"><use transform="matrix(0.010850694444444444,0,0,0.010850694444444444,0,0)" xlink:href="#Z"/><use transform="matrix(0.010850694444444444,0,0,0.010850694444444444,7.996961805555555,0)" xlink:href="#aa"/><use transform="matrix(0.010850694444444444,0,0,0.010850694444444444,21.16970486111111,0)" xlink:href="#ab"/><use transform="matrix(0.010850694444444444,0,0,0.010850694444444444,33.64800347222222,0)" xlink:href="#ao"/><use transform="matrix(0.010850694444444444,0,0,0.010850694444444444,39.029947916666664,0)" xlink:href="#af"/><use transform="matrix(0.010850694444444444,0,0,0.010850694444444444,44.41189236111111,0)" xlink:href="#at"/><use transform="matrix(0.010850694444444444,0,0,0.010850694444444444,56.68402777777778,0)" xlink:href="#ab"/><use transform="matrix(0.010850694444444444,0,0,0.010850694444444444,69.16232638888889,0)" xlink:href="#ae"/><use transform="matrix(0.010850694444444444,0,0,0.010850694444444444,82.76909722222221,0)" xlink:href="#ak"/><use transform="matrix(0.010850694444444444,0,0,0.010850694444444444,96.09374999999997,0)" xlink:href="#al"/></g><g id="r"><use transform="matrix(0.009765625,0,0,0.009765625,0,0)" xlink:href="#ad"/><use transform="matrix(0.009765625,0,0,0.009765625,12.021484375,0)" xlink:href="#aq"/><use transform="matrix(0.009765625,0,0,0.009765625,16.865234375,0)" xlink:href="#aa"/><use transform="matrix(0.009765625,0,0,0.009765625,28.525390625,0)" xlink:href="#ah"/><use transform="matrix(0.009765625,0,0,0.009765625,39.951171875,0)" xlink:href="#ar"/><use transform="matrix(0.009765625,0,0,0.009765625,51.77734375,0)" xlink:href="#ag"/><use transform="matrix(0.009765625,0,0,0.009765625,58.41796875,0)" xlink:href="#ab"/><use transform="matrix(0.009765625,0,0,0.009765625,69.6484375,0)" xlink:href="#Z"/></g><path d="M528 20c-247 0-343-132-343-381v-721h180v686c-4 177 45 284 224 277 194-8 279-136 279-336v-627h181c3 360-6 732 6 1082H885c-4-54-7-126-8-185h-3C809-64 714 20 528 20" id="ay"/><path d="M698-1104c312 3 392 244 392 558 0 315-82 566-392 566-169 0-277-65-331-184h-5c8 188 2 394 4 589H185V-858c0-76-1-156-6-224h175c6 52 9 120 10 178h4c58-122 150-202 330-200zm-49 991c225 0 255-203 255-433 0-225-32-419-253-419-236 0-285 192-285 441 0 237 53 411 283 411" id="az"/><path d="M865-914c-3-187-2-380-2-570h180v1261c0 76 1 155 6 223H877c-8-49-9-116-10-174h-5C801-44 708 26 530 26c-135 0-234-46-297-139s-95-232-95-419c0-377 131-566 392-566 176 0 271 63 335 184zm-286-51c-222 0-255 197-255 427 0 229 31 425 253 425 237 0 286-195 286-441 0-238-52-411-284-411" id="aA"/><path d="M1000-272c3 95 12 159 101 161 21 0 41-3 59-7V-6c-44 10-86 16-139 16-141 2-191-84-197-217h-6C748-76 648 20 446 20c-207 0-318-120-318-322 0-266 194-348 454-354l236-4c12-191-40-305-222-305-140 0-220 47-232 172l-188-17c33-204 181-292 423-292 255 0 401 118 401 364v466zm-683-27c0 109 63 184 175 182 166-3 259-96 306-217 24-65 20-120 20-200-232 7-501-28-501 235" id="aB"/><path d="M682 16c-209 0-323-80-324-285v-671H190v-142h170l58-282h120v282h432v142H538v652c2 114 60 155 182 155 106 0 209-16 297-34v137C921-4 806 16 682 16" id="aC"/><path d="M617-1102c355 0 481 238 477 599H322c5 222 84 388 301 388 144 0 244-59 284-166l158 45C1002-72 854 20 623 20c-342 0-490-220-490-568 0-346 151-554 484-554zm291 461c-18-192-90-328-289-328-194 0-287 128-295 328h584" id="aD"/><path d="M-5 220v-96h1238v96H-5" id="aE"/><path d="M1048-32c-2 300-135 456-433 456-222-1-358-88-400-267l184-25c22 99 100 157 222 156 184-2 248-125 248-315 0-64 3-133-2-194C807-100 706-13 524-12c-306 0-381-228-381-537 0-318 85-550 400-550 164 0 271 83 325 202h3c1-60 3-134 12-185h171c-13 339-4 702-6 1050zM585-145c210-8 284-178 284-406 0-192-52-331-177-392-33-16-69-22-104-22-223 2-259 184-259 414 0 229 31 415 256 406" id="aF"/><path d="M839-1102c70 0 148 7 206 17v167c-112-18-268-36-363 15-129 69-208 203-208 395V0H294c-10-367 32-789-52-1082h171c21 75 41 161 48 250h5c67-152 152-270 373-270" id="aG"/><path d="M745-142h380V0H143v-142h422v-798H246v-142h499v940zM545-1292v-192h200v192H545" id="aH"/><path d="M715 0H502L69-1082h202c94 253 197 500 285 758 19 57 36 126 52 183 96-335 234-626 350-941h201" id="aI"/><path d="M295 13c-75 0-135-60-135-135s60-135 135-135 135 60 135 135S370 13 295 13" id="aJ"/><g id="s"><use transform="matrix(0.009765625,0,0,0.009765625,0,0)" xlink:href="#ay"/><use transform="matrix(0.009765625,0,0,0.009765625,12.001953125,0)" xlink:href="#az"/><use transform="matrix(0.009765625,0,0,0.009765625,24.00390625,0)" xlink:href="#aA"/><use transform="matrix(0.009765625,0,0,0.009765625,36.005859375,0)" xlink:href="#aB"/><use transform="matrix(0.009765625,0,0,0.009765625,48.0078125,0)" xlink:href="#aC"/><use transform="matrix(0.009765625,0,0,0.009765625,60.009765625,0)" xlink:href="#aD"/><use transform="matrix(0.009765625,0,0,0.009765625,72.01171875,0)" xlink:href="#aE"/><use transform="matrix(0.009765625,0,0,0.009765625,84.013671875,0)" xlink:href="#aF"/><use transform="matrix(0.009765625,0,0,0.009765625,96.015625,0)" xlink:href="#aA"/><use transform="matrix(0.009765625,0,0,0.009765625,108.017578125,0)" xlink:href="#aG"/><use transform="matrix(0.009765625,0,0,0.009765625,120.01953125,0)" xlink:href="#aH"/><use transform="matrix(0.009765625,0,0,0.009765625,132.021484375,0)" xlink:href="#aI"/><use transform="matrix(0.009765625,0,0,0.009765625,144.0234375,0)" xlink:href="#aD"/><use transform="matrix(0.009765625,0,0,0.009765625,156.025390625,0)" xlink:href="#aJ"/><use transform="matrix(0.009765625,0,0,0.009765625,161.787109375,0)" xlink:href="#al"/><use transform="matrix(0.009765625,0,0,0.009765625,172.34375,0)" xlink:href="#ax"/></g><path d="M664-669c3 277-82 343-222 425-88 53-156 134-156 250 0 139 108 227 243 227 118 0 235-70 246-236h190c-10 251-200 395-436 395-259 0-427-165-427-393 0-161 74-273 203-352 132-80 180-132 178-316h181zm-93-462c75 0 135 60 135 134 0 75-60 135-135 135-74 0-134-60-134-135 0-74 60-134 134-134" id="aK"/><path d="M657 26c-323 0-524-166-541-416h195c15 169 171 246 346 246 202 0 356-106 356-265 5-203-294-238-475-293-239-73-380-191-380-389 0-252 224-419 512-419 294 0 499 171 508 396H992c-17-145-151-228-328-228-193 0-321 102-321 242 0 156 175 211 284 241l149 41c160 44 422 134 422 412 0 244-197 432-541 432" id="aL"/><g id="t"><use transform="matrix(0.007595486111111112,0,0,0.007595486111111112,0,0)" xlink:href="#aK"/><use transform="matrix(0.007595486111111112,0,0,0.007595486111111112,7.952473958333334,0)" xlink:href="#aL"/><use transform="matrix(0.007595486111111112,0,0,0.007595486111111112,17.932942708333336,0)" xlink:href="#ak"/><use transform="matrix(0.007595486111111112,0,0,0.007595486111111112,27.26019965277778,0)" xlink:href="#am"/></g><g id="u"><use transform="matrix(0.007595486111111112,0,0,0.007595486111111112,0,0)" xlink:href="#ah"/><use transform="matrix(0.007595486111111112,0,0,0.007595486111111112,9.038628472222223,0)" xlink:href="#ab"/><use transform="matrix(0.007595486111111112,0,0,0.007595486111111112,17.7734375,0)" xlink:href="#ai"/><use transform="matrix(0.007595486111111112,0,0,0.007595486111111112,31.399739583333336,0)" xlink:href="#aj"/><use transform="matrix(0.007595486111111112,0,0,0.007595486111111112,40.92447916666667,0)" xlink:href="#af"/><use transform="matrix(0.007595486111111112,0,0,0.007595486111111112,44.691840277777786,0)" xlink:href="#ak"/><use transform="matrix(0.007595486111111112,0,0,0.007595486111111112,54.01909722222223,0)" xlink:href="#al"/></g><path d="M678-1118v154H420V0H240v-964H20v-154h220v-149c0-194 155-293 318-293 85 0 141 18 168 30l-50 154c-19-6-47-17-97-17-111 0-159 58-159 166v109h258" id="aM"/><g id="v"><use transform="matrix(0.007595486111111112,0,0,0.007595486111111112,0,0)" xlink:href="#aM"/><use transform="matrix(0.007595486111111112,0,0,0.007595486111111112,5.757378472222223,0)" xlink:href="#af"/><use transform="matrix(0.007595486111111112,0,0,0.007595486111111112,9.524739583333336,0)" xlink:href="#am"/><use transform="matrix(0.007595486111111112,0,0,0.007595486111111112,18.71527777777778,0)" xlink:href="#ab"/><use transform="matrix(0.007595486111111112,0,0,0.007595486111111112,27.450086805555557,0)" xlink:href="#ao"/><use transform="matrix(0.007595486111111112,0,0,0.007595486111111112,31.21744791666667,0)" xlink:href="#aa"/><use transform="matrix(0.007595486111111112,0,0,0.007595486111111112,40.286458333333336,0)" xlink:href="#al"/></g><g id="w"><use transform="matrix(0.007595486111111112,0,0,0.007595486111111112,0,0)" xlink:href="#aw"/><use transform="matrix(0.007595486111111112,0,0,0.007595486111111112,9.676649305555555,0)" xlink:href="#ab"/><use transform="matrix(0.007595486111111112,0,0,0.007595486111111112,18.411458333333336,0)" xlink:href="#Z"/><use transform="matrix(0.007595486111111112,0,0,0.007595486111111112,24.267578125000004,0)" xlink:href="#ab"/></g><g id="x"><use transform="matrix(0.007595486111111112,0,0,0.007595486111111112,0,0)" xlink:href="#aa"/><use transform="matrix(0.007595486111111112,0,0,0.007595486111111112,9.069010416666668,0)" xlink:href="#al"/><use transform="matrix(0.007595486111111112,0,0,0.007595486111111112,17.27973090277778,0)" xlink:href="#aa"/></g><path d="M383-449c-3-277 82-343 222-425 88-53 156-134 156-250 0-139-108-227-243-227-118 0-235 70-246 236H82c10-251 200-395 436-395 259 0 427 165 427 393 0 161-74 273-203 352-132 80-180 132-178 316H383zm93 462c-75 0-135-60-135-134 0-75 60-135 135-135 74 0 134 60 134 135 0 74-60 134-134 134" id="aN"/><g id="y"><use transform="matrix(0.007595486111111112,0,0,0.007595486111111112,0,0)" xlink:href="#ae"/><use transform="matrix(0.007595486111111112,0,0,0.007595486111111112,9.524739583333334,0)" xlink:href="#ak"/><use transform="matrix(0.007595486111111112,0,0,0.007595486111111112,18.85199652777778,0)" xlink:href="#ah"/><use transform="matrix(0.007595486111111112,0,0,0.007595486111111112,27.73871527777778,0)" xlink:href="#ar"/><use transform="matrix(0.007595486111111112,0,0,0.007595486111111112,36.936848958333336,0)" xlink:href="#ai"/><use transform="matrix(0.007595486111111112,0,0,0.007595486111111112,50.56315104166667,0)" xlink:href="#aa"/><use transform="matrix(0.007595486111111112,0,0,0.007595486111111112,59.63216145833334,0)" xlink:href="#am"/><use transform="matrix(0.007595486111111112,0,0,0.007595486111111112,68.82269965277779,0)" xlink:href="#ag"/><use transform="matrix(0.007595486111111112,0,0,0.007595486111111112,73.759765625,0)" xlink:href="#ak"/><use transform="matrix(0.007595486111111112,0,0,0.007595486111111112,83.08702256944444,0)" xlink:href="#aN"/></g><g id="z"><use transform="matrix(0.008680555555555556,0,0,0.008680555555555556,0,0)" xlink:href="#X"/><use transform="matrix(0.008680555555555556,0,0,0.008680555555555556,12.265625,0)" xlink:href="#Y"/><use transform="matrix(0.008680555555555556,0,0,0.008680555555555556,23.16840277777778,0)" xlink:href="#Z"/><use transform="matrix(0.008680555555555556,0,0,0.008680555555555556,29.565972222222218,0)" xlink:href="#aa"/><use transform="matrix(0.008680555555555556,0,0,0.008680555555555556,39.93055555555556,0)" xlink:href="#Y"/><use transform="matrix(0.008680555555555556,0,0,0.008680555555555556,50.833333333333336,0)" xlink:href="#ab"/><use transform="matrix(0.008680555555555556,0,0,0.008680555555555556,60.81597222222222,0)" xlink:href="#Z"/></g><g id="A"><use transform="matrix(0.008680555555555556,0,0,0.008680555555555556,0,0)" xlink:href="#aa"/><use transform="matrix(0.008680555555555556,0,0,0.008680555555555556,10.364583333333334,0)" xlink:href="#ao"/></g><g id="B"><use transform="matrix(0.008680555555555556,0,0,0.008680555555555556,0,0)" xlink:href="#am"/><use transform="matrix(0.008680555555555556,0,0,0.008680555555555556,10.503472222222223,0)" xlink:href="#ak"/><use transform="matrix(0.008680555555555556,0,0,0.008680555555555556,21.163194444444446,0)" xlink:href="#ai"/><use transform="matrix(0.008680555555555556,0,0,0.008680555555555556,36.736111111111114,0)" xlink:href="#aj"/><use transform="matrix(0.008680555555555556,0,0,0.008680555555555556,47.621527777777786,0)" xlink:href="#Z"/><use transform="matrix(0.008680555555555556,0,0,0.008680555555555556,54.019097222222236,0)" xlink:href="#aa"/></g><g id="C"><use transform="matrix(0.008680555555555556,0,0,0.008680555555555556,0,0)" xlink:href="#ae"/><use transform="matrix(0.008680555555555556,0,0,0.008680555555555556,10.885416666666668,0)" xlink:href="#aa"/><use transform="matrix(0.008680555555555556,0,0,0.008680555555555556,21.25,0)" xlink:href="#ao"/></g><path d="M481 0L54-1118h197c107 314 236 620 325 951 87-331 217-637 324-951h197L670 0H481" id="aO"/><g id="D"><use transform="matrix(0.008680555555555556,0,0,0.008680555555555556,0,0)" xlink:href="#ab"/><use transform="matrix(0.008680555555555556,0,0,0.008680555555555556,9.98263888888889,0)" xlink:href="#Z"/><use transform="matrix(0.008680555555555556,0,0,0.008680555555555556,16.380208333333336,0)" xlink:href="#ah"/><use transform="matrix(0.008680555555555556,0,0,0.008680555555555556,26.536458333333336,0)" xlink:href="#ax"/><use transform="matrix(0.008680555555555556,0,0,0.008680555555555556,37.048611111111114,0)" xlink:href="#af"/><use transform="matrix(0.008680555555555556,0,0,0.008680555555555556,41.35416666666667,0)" xlink:href="#aO"/><use transform="matrix(0.008680555555555556,0,0,0.008680555555555556,50.99826388888889,0)" xlink:href="#ak"/><use transform="matrix(0.008680555555555556,0,0,0.008680555555555556,61.657986111111114,0)" xlink:href="#ac"/><use transform="matrix(0.008680555555555556,0,0,0.008680555555555556,68.06423611111111,0)" xlink:href="#ae"/><use transform="matrix(0.008680555555555556,0,0,0.008680555555555556,78.94965277777779,0)" xlink:href="#af"/><use transform="matrix(0.008680555555555556,0,0,0.008680555555555556,83.25520833333334,0)" xlink:href="#Z"/><use transform="matrix(0.008680555555555556,0,0,0.008680555555555556,89.65277777777779,0)" xlink:href="#aa"/><use transform="matrix(0.008680555555555556,0,0,0.008680555555555556,100.01736111111111,0)" xlink:href="#ah"/><use transform="matrix(0.008680555555555556,0,0,0.008680555555555556,110.17361111111111,0)" xlink:href="#ag"/><use transform="matrix(0.008680555555555556,0,0,0.008680555555555556,115.81597222222223,0)" xlink:href="#ak"/><use transform="matrix(0.008680555555555556,0,0,0.008680555555555556,126.47569444444446,0)" xlink:href="#Z"/><use transform="matrix(0.008680555555555556,0,0,0.008680555555555556,133.44618055555557,0)" xlink:href="#af"/><use transform="matrix(0.008680555555555556,0,0,0.008680555555555556,137.75173611111111,0)" xlink:href="#ak"/></g><g id="E"><use transform="matrix(0.008680555555555556,0,0,0.008680555555555556,0,0)" xlink:href="#aa"/><use transform="matrix(0.008680555555555556,0,0,0.008680555555555556,10.364583333333334,0)" xlink:href="#am"/></g><path d="M496 0v-299h235V0H496" id="aP"/><path d="M631 20c-350 0-501-215-501-562 0-355 162-560 502-560 250 0 399 118 446 323l-192 14c-23-124-109-196-262-196-242 0-305 171-305 415 1 245 61 427 304 427 151 0 248-77 267-215l190 12C1039-107 883 20 631 20" id="aQ"/><path d="M736-142h380V0H134v-142h422v-1200H267v-142h469v1342" id="aR"/><path d="M615-1102c343 0 484 203 482 560-1 347-147 562-488 562-336 0-475-219-479-562-4-349 156-560 485-560zm-8 989c240 0 301-180 301-429 0-245-55-427-290-427-236 0-299 181-299 427 0 243 61 429 288 429" id="aS"/><path d="M706-1102c241 0 344 136 343 381V0H868v-695c1-168-57-273-220-268-190 6-283 138-283 336V0H185c-3-360 6-732-6-1082h170c4 54 7 126 8 185h3c63-121 164-204 346-205" id="aT"/><g id="F"><use transform="matrix(0.008680555555555556,0,0,0.008680555555555556,0,0)" xlink:href="#aP"/><use transform="matrix(0.008680555555555556,0,0,0.008680555555555556,10.668402777777779,0)" xlink:href="#aG"/><use transform="matrix(0.008680555555555556,0,0,0.008680555555555556,21.336805555555557,0)" xlink:href="#aQ"/><use transform="matrix(0.008680555555555556,0,0,0.008680555555555556,32.005208333333336,0)" xlink:href="#aR"/><use transform="matrix(0.008680555555555556,0,0,0.008680555555555556,42.673611111111114,0)" xlink:href="#aS"/><use transform="matrix(0.008680555555555556,0,0,0.008680555555555556,53.34201388888889,0)" xlink:href="#aT"/><use transform="matrix(0.008680555555555556,0,0,0.008680555555555556,64.01041666666667,0)" xlink:href="#aD"/><use transform="matrix(0.008680555555555556,0,0,0.008680555555555556,74.67881944444446,0)" xlink:href="#aH"/><use transform="matrix(0.008680555555555556,0,0,0.008680555555555556,85.34722222222223,0)" xlink:href="#aF"/><use transform="matrix(0.008680555555555556,0,0,0.008680555555555556,96.015625,0)" xlink:href="#aT"/><use transform="matrix(0.008680555555555556,0,0,0.008680555555555556,106.68402777777777,0)" xlink:href="#aS"/><use transform="matrix(0.008680555555555556,0,0,0.008680555555555556,117.35243055555554,0)" xlink:href="#aG"/><use transform="matrix(0.008680555555555556,0,0,0.008680555555555556,128.02083333333331,0)" xlink:href="#aD"/></g><path fill="#333" d="M681 22C323 22 94-145 85-462h297c10 151 131 226 296 226 163 0 271-77 271-190 0-102-95-149-257-189l-164-41c-252-61-403-188-403-405 0-269 236-449 560-449 330 0 546 183 551 445H941c-11-119-106-188-259-188-156 0-244 72-244 172-3 156 226 185 373 221 250 61 445 186 445 436 0 271-213 446-575 446" id="aU"/><path fill="#333" d="M128 0v-1118h300V0H128zm150-1264c-91 0-165-68-165-154 0-85 74-154 165-154 90 0 165 69 165 154 0 86-75 154-165 154" id="aV"/><g id="G"><use transform="matrix(0.008680555555555556,0,0,0.008680555555555556,0,0)" xlink:href="#aU"/><use transform="matrix(0.008680555555555556,0,0,0.008680555555555556,11.640625,0)" xlink:href="#aV"/></g><path fill="#333" d="M135 0v-1490h340l471 754c59 97 122 210 187 365-32-387-14-721-19-1119h312V0h-341C855-382 627-689 427-1113c32 420 16 695 20 1113H135" id="aW"/><path fill="#333" d="M628 22C291 22 81-210 81-554c0-346 210-578 547-578 336 0 547 232 547 578 0 344-211 576-547 576zm0-236c160 0 242-146 242-341 0-197-82-341-242-341S387-753 387-555c0 195 81 341 241 341" id="aX"/><g id="H"><use transform="matrix(0.008680555555555556,0,0,0.008680555555555556,0,0)" xlink:href="#aW"/><use transform="matrix(0.008680555555555556,0,0,0.008680555555555556,13.550347222222223,0)" xlink:href="#aX"/></g><g id="I"><use transform="matrix(0.010850694444444444,0,0,0.010850694444444444,0,0)" xlink:href="#av"/><use transform="matrix(0.010850694444444444,0,0,0.010850694444444444,16.57986111111111,0)" xlink:href="#aa"/><use transform="matrix(0.010850694444444444,0,0,0.010850694444444444,29.535590277777775,0)" xlink:href="#am"/><use transform="matrix(0.010850694444444444,0,0,0.010850694444444444,42.66493055555556,0)" xlink:href="#aa"/><use transform="matrix(0.010850694444444444,0,0,0.010850694444444444,55.62065972222222,0)" xlink:href="#Z"/><use transform="matrix(0.010850694444444444,0,0,0.010850694444444444,63.986545138888886,0)" xlink:href="#ab"/><use transform="matrix(0.010850694444444444,0,0,0.010850694444444444,76.46484375,0)" xlink:href="#Z"/></g><path d="M645 0H180v-1490h484c435 0 692 280 692 742 0 466-257 748-711 748zM370-168h263c363 0 539-218 539-580 0-358-176-574-521-574H370v1154" id="aY"/><path d="M180 0v-1490h901v168H370v510h643v168H370V0H180" id="aZ"/><path d="M180 0v-1490h190v644h782v-644h190V0h-190v-678H370V0H180" id="ba"/><path d="M98-1322v-168h1126v168H757V0H567v-1322H98" id="bb"/><path d="M180 0v-1490h270l367 940c28 72 75 218 110 339 35-117 81-264 110-339l362-940h271V0h-187c2-448-5-837 7-1287-157 497-311 829-483 1287H842C666-458 514-784 354-1284c12 438 5 843 7 1284H180" id="bc"/><g id="J"><use transform="matrix(0.010850694444444444,0,0,0.010850694444444444,0,0)" xlink:href="#ap"/><use transform="matrix(0.010850694444444444,0,0,0.010850694444444444,14.192708333333332,0)" xlink:href="#aY"/><use transform="matrix(0.010850694444444444,0,0,0.010850694444444444,30.23003472222222,0)" xlink:href="#aZ"/><use transform="matrix(0.010850694444444444,0,0,0.010850694444444444,43.34852430555556,0)" xlink:href="#ac"/><use transform="matrix(0.010850694444444444,0,0,0.010850694444444444,51.35633680555556,0)" xlink:href="#ba"/><use transform="matrix(0.010850694444444444,0,0,0.010850694444444444,67.87109375,0)" xlink:href="#bb"/><use transform="matrix(0.010850694444444444,0,0,0.010850694444444444,82.21571180555556,0)" xlink:href="#bc"/><use transform="matrix(0.010850694444444444,0,0,0.010850694444444444,102.28949652777777,0)" xlink:href="#an"/></g><g id="K"><use transform="matrix(0.010850694444444444,0,0,0.010850694444444444,0,0)" xlink:href="#ae"/><use transform="matrix(0.010850694444444444,0,0,0.010850694444444444,13.606770833333332,0)" xlink:href="#aa"/><use transform="matrix(0.010850694444444444,0,0,0.010850694444444444,26.5625,0)" xlink:href="#ao"/></g><path d="M180 0v-1490h224l606 953c40 63 108 177 176 312-27-437-7-821-13-1265h190V0h-226C860-448 622-778 356-1262c27 476 11 792 15 1262H180" id="bd"/><path d="M158 0v-1490h180v865h22l478-493h223L593-638 1096 0H865L456-523 338-412V0H158" id="be"/><g id="L"><use transform="matrix(0.010850694444444444,0,0,0.010850694444444444,0,0)" xlink:href="#bd"/><use transform="matrix(0.010850694444444444,0,0,0.010850694444444444,16.74262152777778,0)" xlink:href="#ak"/><use transform="matrix(0.010850694444444444,0,0,0.010850694444444444,30.06727430555556,0)" xlink:href="#ag"/><use transform="matrix(0.010850694444444444,0,0,0.010850694444444444,37.12022569444444,0)" xlink:href="#aa"/><use transform="matrix(0.010850694444444444,0,0,0.010850694444444444,50.07595486111111,0)" xlink:href="#aj"/><use transform="matrix(0.010850694444444444,0,0,0.010850694444444444,63.68272569444444,0)" xlink:href="#ak"/><use transform="matrix(0.010850694444444444,0,0,0.010850694444444444,77.00737847222221,0)" xlink:href="#ak"/><use transform="matrix(0.010850694444444444,0,0,0.010850694444444444,90.33203124999997,0)" xlink:href="#be"/></g><path d="M135 0v-1490h305v1237h643V0H135" id="bf"/><path d="M633 22C291 22 81-200 81-553c0-345 210-579 537-579 292 0 525 185 525 567v84H378c7 183 109 277 260 277 105 0 184-46 216-132l272 51C1071-99 893 22 633 22zM380-669h474c-15-146-94-237-233-237-143 0-229 99-241 237" id="bg"/><path d="M120 396l69-226c123 42 245 23 254-107l8-60L31-1118h319c87 288 199 559 259 872 72-308 185-583 277-872h315L726 132c-68 181-186 294-410 294-79 0-153-13-196-30" id="bh"/><path d="M428-647V0H128v-1118h283l4 231c63-156 176-245 348-245 232 0 384 159 384 421V0H847v-659c0-139-76-222-202-222-128 0-217 86-217 234" id="bi"/><path d="M537 19C279 19 81-185 81-557c0-382 206-575 454-575 190 0 278 113 318 202h10v-560h300V0H868v-179h-15C812-89 719 19 537 19zm92-241c153 0 240-134 240-336 0-203-86-334-240-334-158 0-240 138-240 334 0 197 84 336 240 336" id="bj"/><path d="M440 22C227 22 68-92 68-313c0-250 202-322 422-343 195-21 271-24 271-105 0-95-63-149-175-149-116 0-187 57-211 129l-275-46c57-194 237-305 487-305 240 0 474 108 474 379V0H777v-155h-10C713-51 605 22 440 22zm85-211c140 0 238-93 238-211v-121c-37 26-156 42-222 51-111 16-185 59-185 149 0 87 70 132 169 132" id="bk"/><g id="M"><use transform="matrix(0.0087890625,0,0,0.0087890625,0,0)" xlink:href="#bf"/><use transform="matrix(0.0087890625,0,0,0.0087890625,10.177734375,0)" xlink:href="#bg"/><use transform="matrix(0.0087890625,0,0,0.0087890625,20.5751953125,0)" xlink:href="#bh"/><use transform="matrix(0.0087890625,0,0,0.0087890625,31.0869140625,0)" xlink:href="#bg"/><use transform="matrix(0.0087890625,0,0,0.0087890625,41.8095703125,0)" xlink:href="#bi"/><use transform="matrix(0.0087890625,0,0,0.0087890625,53.015625,0)" xlink:href="#bj"/><use transform="matrix(0.0087890625,0,0,0.0087890625,64.3623046875,0)" xlink:href="#bk"/></g><g id="N"><use transform="matrix(0.0068359375,0,0,0.0068359375,0,0)" xlink:href="#ap"/><use transform="matrix(0.0068359375,0,0,0.0068359375,8.94140625,0)" xlink:href="#ab"/><use transform="matrix(0.0068359375,0,0,0.0068359375,16.802734375,0)" xlink:href="#Z"/><use transform="matrix(0.0068359375,0,0,0.0068359375,22.2919921875,0)" xlink:href="#ag"/><use transform="matrix(0.0068359375,0,0,0.0068359375,26.7353515625,0)" xlink:href="#aa"/></g><g id="O"><use transform="matrix(0.0068359375,0,0,0.0068359375,0,0)" xlink:href="#aa"/><use transform="matrix(0.0068359375,0,0,0.0068359375,8.162109375,0)" xlink:href="#am"/><use transform="matrix(0.0068359375,0,0,0.0068359375,16.43359375,0)" xlink:href="#ag"/><use transform="matrix(0.0068359375,0,0,0.0068359375,20.876953125,0)" xlink:href="#aa"/><use transform="matrix(0.0068359375,0,0,0.0068359375,29.0390625,0)" xlink:href="#Z"/><use transform="matrix(0.0068359375,0,0,0.0068359375,34.3095703125,0)" xlink:href="#ab"/><use transform="matrix(0.0068359375,0,0,0.0068359375,42.1708984375,0)" xlink:href="#ai"/><use transform="matrix(0.0068359375,0,0,0.0068359375,54.4345703125,0)" xlink:href="#aa"/><use transform="matrix(0.0068359375,0,0,0.0068359375,62.5966796875,0)" xlink:href="#am"/><use transform="matrix(0.0068359375,0,0,0.0068359375,70.8681640625,0)" xlink:href="#ag"/><use transform="matrix(0.0068359375,0,0,0.0068359375,75.3115234375,0)" xlink:href="#aa"/></g><g id="P"><use transform="matrix(0.0068359375,0,0,0.0068359375,0,0)" xlink:href="#bc"/><use transform="matrix(0.0068359375,0,0,0.0068359375,12.646484375,0)" xlink:href="#ab"/><use transform="matrix(0.0068359375,0,0,0.0068359375,20.5078125,0)" xlink:href="#am"/><use transform="matrix(0.0068359375,0,0,0.0068359375,28.779296875,0)" xlink:href="#ar"/><use transform="matrix(0.0068359375,0,0,0.0068359375,37.0576171875,0)" xlink:href="#ab"/><use transform="matrix(0.0068359375,0,0,0.0068359375,44.9189453125,0)" xlink:href="#ao"/></g><path d="M1096 418H916v-591h-14C865-111 790 24 577 24c-279 0-473-224-473-580 0-354 195-576 474-576 218 0 287 134 324 193h20v-179h174V418zM604-137c203 0 314-172 314-421 0-247-108-413-314-413-212 0-317 181-317 413 0 235 108 421 317 421" id="bl"/><g id="Q"><use transform="matrix(0.0068359375,0,0,0.0068359375,0,0)" xlink:href="#bl"/><use transform="matrix(0.0068359375,0,0,0.0068359375,8.572265625,0)" xlink:href="#ar"/><use transform="matrix(0.0068359375,0,0,0.0068359375,16.8505859375,0)" xlink:href="#aa"/></g><g id="R"><use transform="matrix(0.0068359375,0,0,0.0068359375,0,0)" xlink:href="#al"/><use transform="matrix(0.0068359375,0,0,0.0068359375,7.3896484375,0)" xlink:href="#aa"/></g><g id="S"><use transform="matrix(0.0068359375,0,0,0.0068359375,0,0)" xlink:href="#aw"/><use transform="matrix(0.0068359375,0,0,0.0068359375,8.572265625,0)" xlink:href="#ar"/><use transform="matrix(0.0068359375,0,0,0.0068359375,16.8505859375,0)" xlink:href="#aa"/><use transform="matrix(0.0068359375,0,0,0.0068359375,25.0126953125,0)" xlink:href="#ae"/><use transform="matrix(0.0068359375,0,0,0.0068359375,33.5849609375,0)" xlink:href="#aa"/></g><g id="T"><use transform="matrix(0.0068359375,0,0,0.0068359375,0,0)" xlink:href="#ab"/><use transform="matrix(0.0068359375,0,0,0.0068359375,7.861328125,0)" xlink:href="#ar"/><use transform="matrix(0.0068359375,0,0,0.0068359375,16.1396484375,0)" xlink:href="#ag"/><use transform="matrix(0.0068359375,0,0,0.0068359375,20.5830078125,0)" xlink:href="#ak"/><use transform="matrix(0.0068359375,0,0,0.0068359375,28.9775390625,0)" xlink:href="#ai"/><use transform="matrix(0.0068359375,0,0,0.0068359375,41.2412109375,0)" xlink:href="#ab"/><use transform="matrix(0.0068359375,0,0,0.0068359375,49.1025390625,0)" xlink:href="#ag"/><use transform="matrix(0.0068359375,0,0,0.0068359375,53.6826171875,0)" xlink:href="#af"/><use transform="matrix(0.0068359375,0,0,0.0068359375,57.0732421875,0)" xlink:href="#at"/><use transform="matrix(0.0068359375,0,0,0.0068359375,64.8046875,0)" xlink:href="#ab"/><use transform="matrix(0.0068359375,0,0,0.0068359375,72.666015625,0)" xlink:href="#Z"/></g><g id="U"><use transform="matrix(0.0068359375,0,0,0.0068359375,0,0)" xlink:href="#ae"/><use transform="matrix(0.0068359375,0,0,0.0068359375,8.572265625,0)" xlink:href="#aa"/><use transform="matrix(0.0068359375,0,0,0.0068359375,16.734375,0)" xlink:href="#al"/><use transform="matrix(0.0068359375,0,0,0.0068359375,24.1240234375,0)" xlink:href="#ae"/><use transform="matrix(0.0068359375,0,0,0.0068359375,32.6962890625,0)" xlink:href="#aa"/></g><g id="V"><use transform="matrix(0.0068359375,0,0,0.0068359375,0,0)" xlink:href="#ar"/><use transform="matrix(0.0068359375,0,0,0.0068359375,8.2783203125,0)" xlink:href="#am"/></g><g id="W"><use transform="matrix(0.0068359375,0,0,0.0068359375,0,0)" xlink:href="#al"/><use transform="matrix(0.0068359375,0,0,0.0068359375,7.3896484375,0)" xlink:href="#ah"/><use transform="matrix(0.0068359375,0,0,0.0068359375,15.3876953125,0)" xlink:href="#Z"/><use transform="matrix(0.0068359375,0,0,0.0068359375,20.876953125,0)" xlink:href="#af"/><use transform="matrix(0.0068359375,0,0,0.0068359375,24.267578125,0)" xlink:href="#aw"/><use transform="matrix(0.0068359375,0,0,0.0068359375,32.83984375,0)" xlink:href="#ag"/></g></defs></g></svg>